<svg xmlns="http://www.w3.org/2000/svg" width="64" height="64" viewBox="0 0 64 64"><defs><style>.cls-1{fill:#0855b4;}</style></defs><title>BankStatement</title><g id="BankStatement"><g id="Stroke"><path class="cls-1" d="M32,2A30,30,0,1,1,2,32,30,30,0,0,1,32,2m0-2A32,32,0,1,0,64,32,32,32,0,0,0,32,0Z"/><rect class="cls-1" x="12" y="44" width="40" height="2"/><path class="cls-1" d="M32,12.56,46.3,24H17.7L32,12.56M32,10,12,26H52L32,10Z"/><rect class="cls-1" x="24" y="26" width="2" height="19"/><rect class="cls-1" x="17" y="26" width="2" height="19"/><rect class="cls-1" x="31" y="26" width="2" height="19"/><rect class="cls-1" x="38" y="26" width="2" height="19"/><rect class="cls-1" x="45" y="26" width="2" height="19"/><circle class="cls-1" cx="32" cy="19" r="2"/></g></g></svg>