<svg xmlns="http://www.w3.org/2000/svg" width="64" height="64" viewBox="0 0 64 64"><defs><style>.cls-1{fill:#0855b4;}</style></defs><title>Artboard 3</title><g id="BrankTransfer"><g id="Flat"><path class="cls-1" d="M32,2A30,30,0,1,1,2,32,30,30,0,0,1,32,2m0-2A32,32,0,1,0,64,32,32,32,0,0,0,32,0Z"/></g></g><g id="Icon_Names" data-name="Icon Names"><path class="cls-1" d="M37.58,22.4a9.9,9.9,0,0,0-5.64-2.64V31c5.44,1.64,7.52,4,7.52,7.72v0c0,4.08-3,7.08-7.48,7.32v3.88H30.22V46a12.74,12.74,0,0,1-8.28-3.72l1.28-1.52a10.42,10.42,0,0,0,7.08,3.52V32.6C25.18,31,22.9,29,22.9,25v0c0-3.8,3-6.76,7.32-7V15.56H32V18a11.38,11.38,0,0,1,6.8,2.92ZM30.3,30.56V19.72c-3.36.16-5.48,2.36-5.48,5.16v0C24.82,27.68,26.1,29.24,30.3,30.56ZM31.94,33V44.36c3.52-.24,5.6-2.6,5.6-5.56v0C37.54,36,36.34,34.28,31.94,33Z"/></g></svg>