<svg data-name="Layer 1" xmlns="http://www.w3.org/2000/svg" width="64" height="64" viewBox="0 0 64 64"><title>Artboard 545</title><path d="M36.73 44h-6V23h6zM41 44h6V28h-6zM27 14h-6v30h6zm37 18A32 32 0 1 1 32 0a32 32 0 0 1 32 32zm-2 0a30 30 0 1 0-30 30 30 30 0 0 0 30-30zM15 17.16h2V14h-2zm0 9.39h2v-3.13h-2zm0-4.69h2v-3.12h-2zm0 9.38h2v-3.13h-2zM15 36h2v-3.11h-2zm0 4.69h2v-3.12h-2zm0 4.69h2v-3.12h-2zM43.88 49H47v-2h-3.12zm-9.38 0h3.12v-2H34.5zm4.69 0h3.12v-2h-3.12zm-9.34 0H33v-2h-3.15zm-4.68 0h3.12v-2h-3.12zm-4.69 0h3.12v-2h-3.12z" fill="#0855b4"/></svg>