<svg data-name="Layer 1" xmlns="http://www.w3.org/2000/svg" width="64" height="64" viewBox="0 0 64 64"><title>Artboard 6</title><path d="M32 0a32 32 0 1 0 32 32A32 32 0 0 0 32 0zm0 62a30 30 0 1 1 30-30 30 30 0 0 1-30 30zM18 31h28v2H18zm12.88 5.21h1.42l-2.59 4.62v3.07h-1.28v-3.06l-2.6-4.63h1.47l1.78 3.33zm3.44-10h3.09l.66 1.79h1.38l-2.92-8h-1.28l-2.92 8h1.33zm1.55-4.35L37 25h-2.27zm6 3.65h1.15c1.65 0 2.94-.94 2.94-2.7a2.56 2.56 0 0 0-2.86-2.64h-2.52V28h1.32zm0-4.16h1.15a1.4 1.4 0 0 1 1.6 1.47 1.44 1.44 0 0 1-1.6 1.48H41.9zm.19 21.44h3.65v1.11h-4.88v-7.69h4.86v1.16h-3.6v2.08h3.19v1.16h-3.19zm-3.46-1A2.26 2.26 0 0 1 36.13 44a4 4 0 0 1-2.79-1.11l.77-1a3 3 0 0 0 2 .92c.74 0 1.21-.41 1.21-1 0-.48-.25-.8-1.48-1.25-1.46-.55-2.22-1.09-2.22-2.32a2.22 2.22 0 0 1 2.44-2.15 3.56 3.56 0 0 1 2.43.9l-.73 1a2.85 2.85 0 0 0-1.73-.72c-.69 0-1.12.38-1.12.89 0 .54.28.82 1.6 1.33s2.12 1.15 2.12 2.27zm-15.88-5.58H24v7.69h-1.11l-3.5-5.28v5.28h-1.26v-7.69h1.19l3.4 5.13zM18 24.13V24a3.72 3.72 0 0 1 3.65-4 3.65 3.65 0 0 1 2.52.89l-.78 1.05a2.46 2.46 0 0 0-1.76-.72c-1.3 0-2.27 1.17-2.27 2.81v.07c0 1.79 1 2.85 2.33 2.85a2.45 2.45 0 0 0 1.41-.42v-1.74h-1.67v-1.16h2.92v3.56a4.35 4.35 0 0 1-2.71 1c-2.16-.04-3.64-1.62-3.64-4.06zm7.61 0V24c0-2.4 1.5-4 3.56-4a3.52 3.52 0 0 1 2.5 1l-.79 1a2.46 2.46 0 0 0-1.71-.77C27.92 21.22 27 22.36 27 24v.05c0 1.72.94 2.84 2.19 2.84a2.42 2.42 0 0 0 1.76-.83l.77.93a3.42 3.42 0 0 1-2.6 1.12c-2.05.04-3.51-1.57-3.51-3.99z" fill="#0855b4"/></svg>