<svg xmlns="http://www.w3.org/2000/svg" viewBox="0 0 100 100"><path fill="#053C50" d="M53.1 92H29.4c-5.3 0-9.6-4.3-9.6-9.6V35.1c0-5.3 4.3-9.6 9.6-9.6H53c5.3 0 9.6 4.3 9.6 9.6v47.3c.1 5.3-4.2 9.6-9.5 9.6zM29.4 28.9c-3.4 0-6.2 2.8-6.2 6.2v47.3c0 3.4 2.8 6.2 6.2 6.2H53c3.4 0 6.2-2.8 6.2-6.2V35.1c0-3.4-2.8-6.2-6.2-6.2H29.4z"/><path fill="#053C50" d="M27.5 33.1h27.6v51.2H27.5zM70.2 35.5c-1.4 0-2.5-1.1-2.5-2.5 0-6.9-5.6-12.5-12.5-12.5-1.4 0-2.5-1.1-2.5-2.5s1.1-2.5 2.5-2.5c9.6 0 17.5 7.9 17.5 17.5 0 1.4-1.1 2.5-2.5 2.5z"/><path fill="#053C50" d="M80.2 35.5c-1.4 0-2.5-1.1-2.5-2.5 0-12.4-10.1-22.5-22.5-22.5-1.4 0-2.5-1.1-2.5-2.5s1.1-2.5 2.5-2.5c15.2 0 27.5 12.3 27.5 27.5 0 1.4-1.1 2.5-2.5 2.5z"/></svg>