<?xml version="1.0" encoding="utf-8"?>
<!-- Generator: Adobe Illustrator 17.1.0, SVG Export Plug-In . SVG Version: 6.00 Build 0)  -->
<!DOCTYPE svg PUBLIC "-//W3C//DTD SVG 1.1//EN" "http://www.w3.org/Graphics/SVG/1.1/DTD/svg11.dtd">
<svg version="1.1" id="Layer_1" xmlns="http://www.w3.org/2000/svg" xmlns:xlink="http://www.w3.org/1999/xlink" x="0px" y="0px"
	 viewBox="0 0 100 100" enable-background="new 0 0 100 100" xml:space="preserve">
<g>
	<path fill="#073B51" d="M59.4,78.8v2.7c0,2.3-1.9,4.1-4.1,4.1H36.7l-3.1,2.8l-10.3,9.2l0,0l-2.6,2.3V85.7h-6.7
		c-2.3,0-4.1-1.9-4.1-4.1V50.4c0-2.3,1.9-4.1,4.1-4.1h12.6c2.3,0,4.1,1.9,4.1,4.1v20.1c0,2.3,1.9,4.1,4.1,4.1h20.4
		C57.5,74.7,59.4,76.5,59.4,78.8z"/>
	<path fill="#073B51" d="M88.2,33.2v33.5c0,2.3-1.9,4.1-4.1,4.1H80v14.3l-2.6-2.4l-10.2-9.2l-3.1-2.8H38.7c-2.3,0-4.1-1.9-4.1-4.1
		V33.2c0-2.3,1.9-4.1,4.1-4.1h45.4C86.4,29,88.2,30.9,88.2,33.2z"/>
</g>
</svg>
