<?xml version="1.0" encoding="utf-8"?>
<!-- Generator: Adobe Illustrator 17.1.0, SVG Export Plug-In . SVG Version: 6.00 Build 0)  -->
<!DOCTYPE svg PUBLIC "-//W3C//DTD SVG 1.1//EN" "http://www.w3.org/Graphics/SVG/1.1/DTD/svg11.dtd">
<svg version="1.1" id="Layer_1" xmlns="http://www.w3.org/2000/svg" xmlns:xlink="http://www.w3.org/1999/xlink" x="0px" y="0px"
	 viewBox="0 0 100 100" enable-background="new 0 0 100 100" xml:space="preserve">
<g>
	<path fill="#073B51" d="M50,16c-22.1,0-40,17.9-40,40s17.9,40,40,40c22.1,0,40-17.9,40-40S72.1,16,50,16z M65.1,63.3
		c-2.2,2.2-5.2,3.5-8.1,3.5c-1.7,0-3.1-0.6-3.7-1.7c-0.2-0.3-0.3-0.6-0.4-1.3c-1.6,1.9-3.4,2.7-5.8,2.7c-4.3,0-7-3.2-7-8.1
		c0-7.3,4.8-13.3,10.5-13.3c2.4,0,3.6,0.6,4.8,2.4l0.4-1.5H61c-0.3,0.9-1,3.5-1.3,4.4L57.1,60C57,60.4,57,60.9,57,61.3
		c0,0.7,0.4,1.1,1.1,1.1c0.8,0,1.9-0.4,2.7-1.1c2.1-1.6,3.5-4.8,3.5-8.2c0-4-1.9-7.4-5-9.4c-1.9-1.2-4.7-1.8-7.7-1.8
		c-9.1,0-15.5,6-15.5,14.6c0,8.3,5.7,13.7,14.4,13.7c2.2,0,4.6-0.3,6.6-0.9c1.7-0.5,2.8-1,4.8-2.3l2.6,3.8c-2.3,1.4-3.4,1.9-5.4,2.5
		c-2.9,0.9-6,1.4-9.2,1.4c-6.1,0-10.8-1.7-14.3-5.1c-3.2-3.2-5-7.8-5-12.8c0-5.4,1.8-10,5.3-13.5c4-4,9.2-5.9,15.9-5.9
		c10.1,0,17.2,6.5,17.2,15.5C69.2,56.9,67.7,60.6,65.1,63.3z"/>
	<path fill="#073B51" d="M51.3,49.1c-1.6,0-3.2,1.1-4.2,3.1c-1,1.9-1.7,4.5-1.7,6.5c0,2.3,0.9,3.5,2.5,3.5c1.6,0,3.1-1.3,4.2-3.5
		c1-2,1.7-4.7,1.7-6.7C53.8,50.3,52.8,49.1,51.3,49.1z"/>
</g>
</svg>
