<svg xmlns="http://www.w3.org/2000/svg" viewBox="0 0 159.7 159.7"><path fill="#18B35B" d="M99.5 112.3c-1 0-1.9.3-2.9 1l-3.1 2.1c-2.2 1.5-3.8 4.5-3.9 7.1v.5c0 1.4.1 4.1.8 5.6.6 1.3 1.8 2.1 3.1 2.1 1.2 0 2.9-.6 4.2-3.6.5-1.1 1.5-2.2 1.9-2.4 2.2-1.2 3.7-4.1 3.9-6.4l.1-.9c.2-1.9-.5-3.1-1.1-3.8-.9-.8-1.9-1.3-3-1.3zm1 4.8l-.1.9c-.2 1.6-1.2 3.5-2.3 4.1s-2.5 2.3-3.2 3.8c-.5 1.1-1 1.8-1.4 1.8-.1 0-.3-.1-.4-.3-.3-.7-.5-2.6-.5-4.3v-.5c0-1.6 1.2-3.8 2.5-4.7l3.1-2.1c.4-.3.8-.4 1.2-.4.8-.1 1.2.6 1.1 1.7zm3.2-43.2l-2 .4c-.9.2-2.2-.4-2.7-1.3l-7.9-15.4c-1-1.9-3.3-3.6-5.4-3.9l-18.7-3c-1.9-.3-4.8 0-6.5.8L51 55.4c-2 .8-3.8 3.2-4.1 5.3l-1.5 11.4c-.3 2.1.6 4.8 2 6.4l3.9 4.4c1.4 1.6 4.1 2.7 6.2 2.5l9.1-.7c.9-.1 1.8.6 2 1.5l6.6 32.7c.3 1.3 1 2.3 2.1 2.6.2.1.4.1.6.1.9 0 1.7-.4 2.4-1.3l17.3-19.6c1.5-1.7 2.1-4.2 1.4-6-.3-.7-.1-2.5.5-3.6l7.2-13.2c1-1.7.3-2.9 0-3.3-.2-.2-1.1-1.1-3-.7zM97 89.8c-1 1.8-1.3 4.5-.7 6.1.2.6-.1 2.1-.9 3l-17.3 19.6-6.6-32.7c-.5-2.3-2.5-3.9-4.8-3.9h-.3l-9.1.7c-1.2.1-3-.6-3.7-1.5l-3.9-4.4c-.8-.9-1.4-2.8-1.2-4.1L50 61.2c.1-1.1 1.2-2.5 2.2-2.9l9.5-3.9c1.3-.5 3.6-.8 4.9-.6l18.7 3c1.2.2 2.7 1.3 3.2 2.3l7.9 15.4c1.1 2.1 3.7 3.3 6 2.8l1.7-.4L97 89.8zM79.8 0C35.8 0 0 35.8 0 79.8s35.8 79.8 79.8 79.8 79.8-35.8 79.8-79.8c.1-44-35.7-79.8-79.8-79.8zM156 69.9l-3.8-5.2c-1.3-1.8-4.1-2.8-6.3-2.2l-2.4.6c-2 .5-4.3 2.3-5.3 4.1l-5 9.5-5.9-20.7c-.6-2.1-2.8-4.1-5-4.4l-1.2-.2c-1.6-.2-4.2-.7-5.7-1.1l-4.7-1.2c-2-.5-2.9.4-3.2.8-.3.4-.9 1.5.1 3.3l.7 1.2c1 1.7 3 3.7 4.7 4.6l1.5.8-6.1 2.5c-.8.3-1.9-.1-2.3-.8l-7.4-14c-.6-1.2-1.2-3.5-1.1-4.9v-1.4c.1-2-.8-4.7-2-6.2-.7-.9-1.7-1.4-2.8-1.5-1.2-.1-2.4.3-3.3 1.1l-4.1 3.5c-.8.7-2.3.9-3.2.4L79.7 37c-1.9-1-4.8-1.1-6.7-.3l-2 .9c-1.5.6-4 1.6-5.5 2.1l-2 .7 3.8-8.6c.5-1.1 2-2.3 3.1-2.5l11.3-2.5c1.2-.3 2.2-1 2.8-2s.8-2.2.5-3.4v-.1c-.4-1.5-.9-4.1-1-5.6v-.5c0-.3.1-.6.3-.8.2-.2.5-.3.8-.3l5.3.5c1.2.1 2.5 1.1 2.8 1.8.9 2 3.4 3.1 5.7 2.4l18.8-5.7c20.5 11.6 35.1 32.4 38.3 56.8zM10.4 112.8c-2.8-5.8-4.8-12-6.1-18.5l4.5 3.5c.9.7 1.8 2.5 1.7 3.6l-.1 11.4zm9.1 12.6l-4.6-6.7c-.8-1.1-1.4-3.3-1.4-4.6l.2-12.7c0-2.1-1.2-4.7-2.9-6.1l-4.5-3.5c-1-.8-2-2.6-2.1-3.8l-.9-8.2c-.1-1.3.4-3.4 1.1-4.4l1.8-2.5c.5-.8 1.8-1.3 2.7-1.3h.4l2.1.4c1.5.3 3.8 1.1 5.1 1.8l.7.4c1.3.7 3.2 2.2 4.1 3.4l1.6 1.9c1.2 1.4 3.5 3.2 5.1 4l4.8 2.3c1.1.5 2.2 2 2.5 3.2l.4 1.8c.3 1.3.1 3.6-.5 4.8l-1.2 3c-.5 1.2-2 2.9-3.1 3.6l-.3.2c-1.7 1-3.6 3.2-4.3 5.1l-5.5 14.3c-.5 1-1 2.5-1.3 3.6zm60.3 31.3c-9.2 0-18-1.6-26.2-4.6l12-4c1.4-.5 3.9-.9 5.4-.9l23.9-.6c1.8 0 4.6-.5 6.3-1l3.9-1.2c1.3-.4 3.7-.6 5.1-.3l9.4 1.6c-11.6 6.9-25.2 11-39.8 11zm43.5-13.6l-12.6-2.2c-1.9-.3-4.7-.1-6.5.4l-3.9 1.2c-1.4.5-3.9.9-5.4.9L71 144c-1.8 0-4.6.5-6.3 1.1l-15.3 5.1c-11.1-4.8-20.9-12.2-28.6-21.4.6-.3 1-.8 1.2-1.6.3-1 1-3.1 1.5-4.6l5.5-14.3c.5-1.2 1.9-2.9 3-3.6l.3-.2c1.7-1 3.6-3.2 4.4-5l1.2-3c.7-1.8 1-4.7.6-6.6l-.4-1.8c-.4-2.1-2.2-4.4-4.1-5.3l-4.8-2.3c-1.3-.6-3.2-2.1-4.1-3.2l-1.6-1.9c-1.2-1.4-3.4-3.2-5-4.1l-.5-.1c-1.6-.9-4.2-1.8-6-2.1l-2.1-.4c-2.2-.4-4.9.7-6.2 2.5l-.2.3C7.6 33 40.3 3 79.8 3c12.3 0 23.8 2.9 34.1 8L98 15.8c-.9.3-1.9-.1-2.1-.7-.8-1.8-3.1-3.4-5.3-3.6l-5.3-.5c-1.2-.1-2.4.3-3.2 1.1-.8.8-1.2 2-1.1 3.2v.5c.1 1.7.6 4.5 1.1 6.2v.1c.1.4.1.7-.1 1.1-.2.3-.5.5-.9.6l-11.3 2.5c-2.1.5-4.3 2.3-5.2 4.2l-4 9c-.8 1.8-.1 2.9.2 3.3s1.3 1.2 3.2.5l2.3-.8c1.6-.5 4.2-1.5 5.7-2.2l2-.9c1.1-.5 3.1-.4 4.1.2l2.7 1.5c2 1.1 4.9.7 6.6-.8l4.1-3.5c.3-.3.7-.4 1.1-.4.2 0 .5.1.7.4.7.9 1.3 2.9 1.3 4.2v1.4c-.1 1.9.6 4.7 1.5 6.4l7.4 14c1.1 2.1 3.8 3.1 6.1 2.2l6.2-2.5c1.8-.7 2.1-2 2.1-2.5s-.1-1.8-1.8-2.7l-1.7-.9c-1.2-.7-2.9-2.3-3.6-3.4l-.4-.8 4.2 1.1c1.6.4 4.4 1 6 1.2l1.2.2c1 .1 2.3 1.2 2.6 2.2l6.1 21.4c.5 1.9 1.7 2.3 2.3 2.3h.2c.7 0 1.7-.3 2.5-1.8l5.4-10.1c.6-1.1 2.2-2.3 3.4-2.6l2.4-.6c1-.3 2.5.3 3.1 1.1l6.8 9.2c.1 1.4.1 2.8.1 4.2 0 26.1-13.3 49.3-33.4 63.1z"/></svg>