<svg id="Layer_1" data-name="Layer 1" xmlns="http://www.w3.org/2000/svg" width="2.35in" height="2.19in" viewBox="0 0 169.3 157.7"><defs><style>.cls-1{fill:#0ab45b;}</style></defs><title>icon HP pricing</title><path class="cls-1" d="M147.38,110.7h2.48L169.3,86.2h-7.85l3.23-9.36H152l-7.19,20.84h7Zm1-15.53,5.46-15.84h7.35l-3.23,9.36h6.19l-11.52,14.53,2.78-8Z"/><path class="cls-1" d="M22.39,54.53h5.86V51.95H21.71A29.13,29.13,0,0,1,21,48.62c-.4-3,.44-5.54,2.25-6.78s4.28-1.06,7.06.46L31.59,40c-3.68-2-7.14-2.11-9.76-.32S18,45,18.49,49a30.29,30.29,0,0,0,.56,3H15.24v2.58h4.48c1.15,4.25,1.64,6.44-2.9,9.35l-.59.38v2.41H34.42V64.09H20.72C23.81,61,23.29,57.95,22.39,54.53Z"/><path class="cls-1" d="M139.08,69.54a69.63,69.63,0,1,0-22.87,51.51l36.64,36.64,2.12-2.12L118.38,119A69.32,69.32,0,0,0,139.08,69.54Zm-93,62.27,3.31-2.37A31.21,31.21,0,0,0,54,134.22,65.94,65.94,0,0,1,46.1,131.81Zm48.18-8.64v0a15.46,15.46,0,0,1-1.59,7.47,18.6,18.6,0,0,1-1,1.61c-1.92.68-3.87,1.28-5.86,1.78V110.23A24.42,24.42,0,0,1,90,113.18a12.3,12.3,0,0,1,4.31,10Zm13.42.84A66.5,66.5,0,0,1,96,130.56a20,20,0,0,0,1.24-7.36A15.27,15.27,0,0,0,92,110.94a34.63,34.63,0,0,0-9.16-5.56v29.37a66.58,66.58,0,0,1-13.23,1.33V100.87a80.06,80.06,0,0,1-8.2-3.12,39.06,39.06,0,0,1-9-5.58A26.75,26.75,0,0,1,45.87,84a24,24,0,0,1-2.54-11.45,26.21,26.21,0,0,1,2.4-11.31A27.87,27.87,0,0,1,52,52.57,30.11,30.11,0,0,1,61,46.85a33.33,33.33,0,0,1,8.64-2.26V32.26H82.82v12a35.07,35.07,0,0,1,4.74.77,30.07,30.07,0,0,1,13,6.75,50.2,50.2,0,0,1,4.57,4.57L97,63.3a18.35,18.35,0,0,0-8.25-7.46A24.61,24.61,0,0,0,82.82,54V94.14c2,.8,4.06,1.53,6,2.44a41,41,0,0,1,9.42,5.95,28,28,0,0,1,6.81,8.56,26,26,0,0,1,2.61,12.11C107.72,123.47,107.71,123.74,107.7,124Zm3-2.22a28.19,28.19,0,0,0-2.92-12.08,31.1,31.1,0,0,0-7.54-9.46,44.31,44.31,0,0,0-10.11-6.38c-1.44-.66-2.89-1.23-4.29-1.77V57.9c.57.2,1.11.42,1.65.67a15.26,15.26,0,0,1,6.93,6.28l1.82,3.06,2.7-2.32,8.13-7,2.3-2-2-2.28a53.44,53.44,0,0,0-4.84-4.84,33.06,33.06,0,0,0-14.23-7.41q-1.17-.28-2.47-.5V29.26H66.59V42a34.48,34.48,0,0,0-6.8,2A33.24,33.24,0,0,0,50,50.37,31,31,0,0,0,43,60a29.28,29.28,0,0,0-2.68,12.59,27,27,0,0,0,2.9,12.87,29.8,29.8,0,0,0,7.23,9,42.28,42.28,0,0,0,9.69,6c2,.91,4.16,1.75,6.44,2.54v33c-1.92-.08-3.82-.26-5.7-.51a39.18,39.18,0,0,1-4.38-3,28.18,28.18,0,0,1-4.71-4.84L50,125.31,47.67,127l-4.85,3.47a66.58,66.58,0,1,1,67.86-8.68Z"/><path class="cls-1" d="M58.7,59.53a18,18,0,0,0-3.62,5.72,18.69,18.69,0,0,0-1.3,7,14.34,14.34,0,0,0,1.38,6.52,15.93,15.93,0,0,0,3.77,4.86,25.65,25.65,0,0,0,5.59,3.7c1.59.79,3.34,1.47,5.08,2.16V54a19,19,0,0,0-5.38,1.54A18.2,18.2,0,0,0,58.7,59.53Zm7.89-1.73V85.05l-.75-.36a22.82,22.82,0,0,1-4.94-3.27,12.86,12.86,0,0,1-3.07-4,11.47,11.47,0,0,1-1.06-5.18,15.8,15.8,0,0,1,1.09-5.92,15.07,15.07,0,0,1,3-4.78,15.3,15.3,0,0,1,4.61-3.34A11.45,11.45,0,0,1,66.59,57.8Z"/></svg>