<svg id="Layer_1" data-name="Layer 1" xmlns="http://www.w3.org/2000/svg" width="2.74in" height="2.09in" viewBox="0 0 197.42 150.37"><defs><style>.cls-1{fill:#0ab45b;}</style></defs><title>icon HP platform</title><path class="cls-1" d="M190.8,71.06h-8.19V37.23A11.93,11.93,0,0,0,170.7,25.31h-7.43V11.92A11.93,11.93,0,0,0,151.34,0H11.92A11.93,11.93,0,0,0,0,11.92v89.31a11.93,11.93,0,0,0,11.92,11.92H69.46v34.21H54.09v3H190.8a6.62,6.62,0,0,0,6.61-6.62V77.67A6.62,6.62,0,0,0,190.8,71.06ZM3,11.92A8.93,8.93,0,0,1,11.92,3H151.34a8.93,8.93,0,0,1,8.92,8.92V25.31H108.67A11.93,11.93,0,0,0,96.75,37.23V84.35H3Zm8.92,98.23A8.93,8.93,0,0,1,3,101.23V87.35H96.75v22.8Zm75.41,37.21H72.46V113.15H87.33Zm3,0V113.15h6.43v25.29a11.88,11.88,0,0,0,4,8.92Zm18.35,0a8.93,8.93,0,0,1-8.92-8.92V37.23a8.93,8.93,0,0,1,8.92-8.92h62a8.93,8.93,0,0,1,8.92,8.92V71.06h-6.92V43.4A9.44,9.44,0,0,0,163.27,34H116.1a9.44,9.44,0,0,0-9.42,9.43v84.42a9.43,9.43,0,0,0,9.42,9.42h37.63v6.51a6.58,6.58,0,0,0,1.08,3.62Zm45.06-69.69v56.56H116.1a6.43,6.43,0,0,1-6.42-6.42V43.4A6.43,6.43,0,0,1,116.1,37h47.17a6.43,6.43,0,0,1,6.42,6.43V71.06h-9.34A6.62,6.62,0,0,0,153.73,77.67Zm40.69,66.07a3.62,3.62,0,0,1-3.61,3.62H160.35a3.62,3.62,0,0,1-3.62-3.62V77.67a3.62,3.62,0,0,1,3.62-3.62H190.8a3.62,3.62,0,0,1,3.61,3.62Zm-16.39-7a2.45,2.45,0,1,1-2.45-2.45A2.45,2.45,0,0,1,178,136.71Zm6.48-53.84a1.28,1.28,0,0,1-1.27,1.28H167.92a1.27,1.27,0,1,1,0-2.55h15.31A1.27,1.27,0,0,1,184.5,82.88Z"/></svg>